<?xml version="1.0" standalone="no"?><!DOCTYPE svg PUBLIC "-//W3C//DTD SVG 1.1//EN" "http://www.w3.org/Graphics/SVG/1.1/DTD/svg11.dtd"><svg t="1563006381875" class="icon" viewBox="0 0 1024 1024" version="1.1" xmlns="http://www.w3.org/2000/svg" p-id="2687" xmlns:xlink="http://www.w3.org/1999/xlink" width="200" height="200"><defs><style type="text/css"></style></defs><path d="M570.514286 512l292.571428-292.571429c14.628571-14.628571 14.628571-43.885714 0-58.514285-14.628571-14.628571-43.885714-14.628571-58.514285 0l-292.571429 292.571428-292.571429-292.571428c-14.628571-14.628571-43.885714-14.628571-58.514285 0-21.942857 14.628571-21.942857 43.885714 0 58.514285l292.571428 292.571429-292.571428 292.571429c-14.628571 14.628571-14.628571 43.885714 0 58.514285 14.628571 14.628571 43.885714 14.628571 58.514285 0l292.571429-292.571428 292.571429 292.571428c14.628571 14.628571 43.885714 14.628571 58.514285 0 14.628571-14.628571 14.628571-43.885714 0-58.514285l-292.571428-292.571429z" fill="#333333" p-id="2688"></path></svg>