<?xml version="1.0" standalone="no"?><!DOCTYPE svg PUBLIC "-//W3C//DTD SVG 1.1//EN" "http://www.w3.org/Graphics/SVG/1.1/DTD/svg11.dtd"><svg t="1517592329118" class="icon" style="" viewBox="0 0 1024 1024" version="1.1" xmlns="http://www.w3.org/2000/svg" p-id="1632" xmlns:xlink="http://www.w3.org/1999/xlink" width="16" height="16"><defs><style type="text/css"></style></defs><path d="M725.333333 42.666667q50.346667 0 97.152 18.986667t83.84 55.978667 56.021333 83.84 18.986667 97.152q0 50.005333-19.157333 97.152t-55.850667 83.84l-128 128q-3.669333 3.669333-11.008 10.325333-35.669333 31.658667-79.658667 48.170667t-90.325333 16.512q-58.325333 0-110.336-25.002667-38.997333-18.346667-70.656-50.005333t-50.005333-70.656q25.002667-25.002667 60.330667-25.002667 12.330667 0 25.002667 3.669333 21.674667 34.986667 56.661333 56.661333 41.002667 25.002667 89.002667 25.002667 33.322667 0 64.682667-12.672t56.021333-37.333333l128-128q24.661333-24.661333 37.333333-56.021333t12.672-64.682667-12.672-64.682667-37.333333-56.021333-56.021333-37.333333-64.682667-12.672-64.682667 12.672-56.021333 37.333333l-89.685333 89.685333q-42.666667-11.648-88.32-11.648-7.338667 0-20.650667 0.682667 6.656-7.338667 10.325333-11.008l128-128q36.650667-36.650667 83.84-55.850667t97.152-19.157333zM426.666667 341.333333q58.325333 0 110.336 25.002667 38.997333 18.346667 70.656 50.005333t50.005333 70.656q-25.002667 25.002667-60.330667 25.002667-12.330667 0-25.002667-3.669333-21.674667-34.986667-56.661333-56.661333-41.002667-25.002667-89.002667-25.002667-33.322667 0-64.682667 12.672t-56.021333 37.333333l-128 128q-24.661333 24.661333-37.333333 56.021333t-12.672 64.682667 12.672 64.682667 37.333333 56.021333 56.021333 37.333333 64.682667 12.672 64.682667-12.672 56.021333-37.333333l89.685333-89.685333q42.666667 11.648 88.32 11.648 7.338667 0 20.650667-0.682667-6.656 7.338667-10.325333 11.008l-128 128q-36.992 36.992-83.84 56.021333t-97.152 18.986667q-50.005333 0-97.152-19.157333t-83.84-55.850667q-36.992-36.992-56.021333-83.84t-18.986667-97.152 18.986667-97.152 56.021333-83.84l128-128q3.669333-3.669333 11.008-10.325333 35.669333-31.658667 79.658667-48.170667t90.325333-16.512z" p-id="1633" fill="#4078c0"></path></svg>